HIERARCHY
ROOT Hips
{
	OFFSET -3.958830 18.904000 13.208200
	CHANNELS 6 Xposition Yposition Zposition Zrotation Yrotation Xrotation 
	JOINT LHipJoint
	{
		OFFSET 0.000000 0.000000 0.000000
		CHANNELS 3 Zrotation Yrotation Xrotation
		JOINT LeftUpLeg
		{
			OFFSET 1.800000 -1.400000 0.085000
			CHANNELS 3 Zrotation Yrotation Xrotation
			JOINT LeftLeg
			{
				OFFSET 2.215000 -6.000000 0.000000
				CHANNELS 3 Zrotation Yrotation Xrotation
				JOINT LeftFoot
				{
					OFFSET 2.500000 -6.900000 0.000000
					CHANNELS 3 Zrotation Yrotation Xrotation
					JOINT LeftToeBase
					{
						OFFSET 0.200000 -0.500000 1.950000
						CHANNELS 3 Zrotation Yrotation Xrotation
						End Site
						{
							OFFSET 0.000000 0.000000 0.000000
						}
					}
				}
			}
		}
	}
	JOINT RHipJoint
	{
		OFFSET 0.000000 0.000000 0.000000
		CHANNELS 3 Zrotation Yrotation Xrotation
		JOINT RightUpLeg
		{
			OFFSET -1.800000 -1.400000 0.085000
			CHANNELS 3 Zrotation Yrotation Xrotation
			JOINT RightLeg
			{
				OFFSET -2.215000 -6.000000 0.000000
				CHANNELS 3 Zrotation Yrotation Xrotation
				JOINT RightFoot
				{
					OFFSET -2.500000 -6.900000 0.000000
					CHANNELS 3 Zrotation Yrotation Xrotation
					JOINT RightToeBase
					{
						OFFSET -0.200000 -0.500000 1.950000
						CHANNELS 3 Zrotation Yrotation Xrotation
						End Site
						{
							OFFSET 0.000000 0.000000 0.000000
						}
					}
				}
			}
		}
	}
	JOINT LowerBack
	{
		OFFSET 0.000000 0.000000 0.000000
		CHANNELS 3 Zrotation Yrotation Xrotation
		JOINT Spine
		{
			OFFSET -0.087000 1.940000 -0.288900
			CHANNELS 3 Zrotation Yrotation Xrotation
			JOINT Spine1
			{
				OFFSET 0.000000 1.950000 0.060000
				CHANNELS 3 Zrotation Yrotation Xrotation
				JOINT Neck
				{
					OFFSET 0.000000 0.000000 0.000000
					CHANNELS 3 Zrotation Yrotation Xrotation
					JOINT Neck1
					{
						OFFSET 0.000000 1.600000 0.340000
						CHANNELS 3 Zrotation Yrotation Xrotation
						JOINT Head
						{
							OFFSET 0.000000 1.667000 -0.240000
							CHANNELS 3 Zrotation Yrotation Xrotation
							End Site
							{
								OFFSET 0.000000 0.000000 0.000000
							}
						}
					}
				}
				JOINT LeftShoulder
				{
					OFFSET 0.000000 0.000000 0.000000
					CHANNELS 3 Zrotation Yrotation Xrotation
					JOINT LeftArm
					{
						OFFSET 2.700000 1.550000 -0.730000
						CHANNELS 3 Zrotation Yrotation Xrotation
						JOINT LeftForeArm
						{
							OFFSET 5.450000 0.000000 0.000000
							CHANNELS 3 Zrotation Yrotation Xrotation
							JOINT LeftHand
							{
								OFFSET 3.450000 0.000000 0.000000
								CHANNELS 3 Zrotation Yrotation Xrotation
								JOINT LeftHandIndex1
								{
									OFFSET 0.750000 0.000000 0.000000
									CHANNELS 3 Zrotation Yrotation Xrotation
									End Site
									{
										OFFSET 0.000000 0.000000 0.000000
									}
								}
							}
						}
					}
				}
				JOINT RightShoulder
				{
					OFFSET 0.000000 0.000000 0.000000
					CHANNELS 3 Zrotation Yrotation Xrotation
					JOINT RightArm
					{
						OFFSET -2.700000 1.550000 -0.730000
						CHANNELS 3 Zrotation Yrotation Xrotation
						JOINT RightForeArm
						{
							OFFSET -5.450000 0.000000 0.000000
							CHANNELS 3 Zrotation Yrotation Xrotation
							JOINT RightHand
							{
								OFFSET -3.450000 0.000000 0.000000
								CHANNELS 3 Zrotation Yrotation Xrotation
								JOINT RightHandIndex1
								{
									OFFSET -0.750000 0.000000 0.000000
									CHANNELS 3 Zrotation Yrotation Xrotation
									End Site
									{
										OFFSET 0.000000 0.000000 0.000000
									}
								}
							}
						}
					}
				}
			}
		}
	}
}
MOTION
Frames: 10
Frame Time: 0.016667
0.849110 17.358470 -5.265150 -9.878146 34.411805 -5.171194 -15.167924 12.174418 1.905348 0.790880 -1.912166 -13.656459 -0.198475 4.445327 19.294287 -0.815599 3.909614 3.406210 0.481690 0.121670 0.497720 18.526058 -10.117391 4.353710 -14.559056 6.068051 -36.650832 16.495557 -28.189620 67.602285 -2.306752 -13.361327 0.111812 0.298120 0.270770 0.230250 -4.782802 -0.034582 -7.769685 19.952344 -2.281583 9.574547 -3.394062 -1.834511 8.296936 3.365719 7.213696 -10.851897 13.019345 -12.348929 18.102512 -5.959340 -3.768560 -9.203340 -18.309679 -9.653727 5.523648 -31.397528 2.139057 -1.299524 -107.442993 -49.245548 54.268236 -3.989181 3.514502 0.398870 0.346160 -0.166240 0.124080 10.802773 3.341242 7.259886 47.768815 -5.378628 -6.753351 107.940429 52.710934 50.189827 1.942545 -2.148941 -0.306420 0.240240 -0.069160 -0.355410 
0.849010 17.346890 -5.255230 -9.619627 34.288013 -4.991974 -15.178560 12.232792 1.953485 0.375132 -1.947031 -13.756766 0.188948 4.327383 19.488013 -0.833763 3.903812 3.406309 0.490330 0.129490 0.499710 18.504894 -10.187886 4.251566 -14.232416 5.820051 -36.326110 15.662213 -26.806620 66.286027 -2.188368 -12.956676 0.203990 0.310170 0.275300 0.230590 -4.733951 -0.074900 -7.716422 19.385492 -2.235336 9.513674 -3.041471 -1.860829 8.357592 3.306120 7.154369 -10.811124 12.926183 -12.036566 17.968916 -5.717860 -3.623720 -9.496370 -18.003990 -9.467189 5.438991 -31.373486 1.915975 -1.032027 -108.202923 -48.873098 54.569510 -3.987433 3.522233 0.406250 0.346100 -0.167340 0.126640 10.668970 3.208370 7.177756 47.689468 -5.224288 -6.509997 108.308769 52.364966 50.249459 1.926255 -2.160126 -0.313690 0.247720 -0.066850 -0.358460 
0.855280 17.322880 -5.234500 -9.262740 33.576113 -4.628812 -15.188623 12.320960 2.045683 -0.506847 -2.013447 -13.963454 0.932785 4.094924 19.883398 -0.881948 3.892412 3.402651 0.525520 0.172630 0.526880 18.479196 -10.326186 4.058124 -13.442794 5.518941 -35.891418 13.795896 -23.952507 63.699952 -1.949326 -12.114190 0.402890 0.355650 0.276440 0.224690 -4.658755 -0.093755 -7.598348 18.662889 -2.042178 9.229064 -2.378357 -1.818627 8.544196 3.285812 7.018944 -10.608805 12.768764 -11.388294 17.432961 -5.580550 -3.125980 -10.434540 -17.750855 -8.903252 5.214533 -31.203860 1.742256 -0.465587 -110.019796 -48.208178 55.567260 -3.989640 3.527343 0.417770 0.347650 -0.164130 0.128130 10.590863 2.766322 6.873798 47.221615 -4.831643 -5.849234 109.632957 51.630334 50.908421 1.888556 -2.182395 -0.329460 0.273870 -0.071660 -0.370340 
0.855920 17.282880 -5.211970 -8.671966 32.846025 -4.017134 -15.208911 12.402786 2.128202 -1.157887 -1.999268 -13.811138 1.094290 3.973333 19.551266 -0.920624 3.869589 3.404923 0.571460 0.216640 0.552740 18.452277 -10.401254 3.905471 -13.128212 5.156363 -36.261017 11.872186 -21.148259 60.853801 -1.696820 -11.224783 0.612118 0.397750 0.277990 0.235880 -4.543963 -0.189667 -7.486847 17.377021 -1.915193 8.786038 -1.349611 -1.925931 8.837906 3.106149 6.810141 -10.410820 12.434253 -10.647429 17.050400 -5.155340 -2.845400 -11.105330 -17.225940 -8.287064 5.063486 -31.357929 1.625309 -0.048811 -110.734275 -48.546296 56.726061 -3.989963 3.555115 0.424220 0.346790 -0.161910 0.136810 10.596326 2.334334 6.481375 46.539900 -4.137643 -4.959491 111.845576 51.161701 52.761335 1.856489 -2.218569 -0.330420 0.281310 -0.078610 -0.375460 
0.851730 17.240740 -5.192140 -8.190330 32.535146 -3.691443 -15.239184 12.514702 2.198497 -1.478758 -1.957009 -13.491748 1.125690 3.932703 19.397762 -0.967200 3.889072 3.384784 0.622710 0.270180 0.590190 18.408466 -10.473517 3.752508 -13.065197 4.613127 -36.487055 10.434243 -18.594148 57.055876 -1.433106 -10.228013 0.863299 0.447250 0.265830 0.241100 -4.416691 -0.325899 -7.379461 15.992543 -1.964601 8.523197 -0.291059 -2.209211 9.028902 3.011354 6.892563 -10.135482 12.522858 -9.920797 16.953248 -4.969240 -2.327460 -12.137970 -16.816188 -7.674624 4.873090 -30.763818 1.491763 0.493531 -111.510741 -48.830651 58.022187 -3.986763 3.566830 0.444920 0.340750 -0.148910 0.139830 10.574347 1.682042 5.928269 45.994427 -2.972614 -3.958059 113.644042 51.209866 54.992662 1.826082 -2.229335 -0.337210 0.294630 -0.088030 -0.391080 
0.848620 17.188850 -5.162180 -7.392399 32.645560 -2.830158 -15.287872 12.610408 2.251039 -1.680096 -1.834325 -12.920974 0.608949 3.987699 18.556644 -1.008731 3.895942 3.372839 0.695090 0.367250 0.602970 18.363084 -10.460698 3.628353 -13.515876 3.986523 -37.284970 9.346438 -16.282179 52.705284 -1.159097 -9.226775 1.124588 0.531380 0.276860 0.256140 -4.235482 -0.565898 -7.235022 13.935054 -2.081541 7.542269 1.315938 -2.705730 9.250414 2.674945 6.668364 -9.618272 12.108286 -9.138580 16.467836 -4.718450 -2.250340 -12.469440 -16.862348 -6.700894 4.598009 -29.821212 1.647287 1.320259 -113.008292 -48.902951 59.936698 -4.001917 3.623860 0.417140 0.360080 -0.156010 0.164410 11.580946 0.886802 5.085443 44.333176 -2.002968 -2.711274 116.144785 51.373003 58.257625 1.780838 -2.274028 -0.325050 0.304670 -0.102750 -0.380540 
0.847180 17.126590 -5.126880 -6.287982 32.558978 -1.956801 -15.345948 12.731871 2.339628 -2.289581 -1.759472 -12.546883 0.446951 3.997793 18.311347 -1.038700 3.928162 3.344930 0.750050 0.445360 0.622720 18.298381 -10.490396 3.448413 -13.678330 3.355133 -37.389349 7.707287 -13.915373 48.553948 -0.904271 -8.223781 1.398288 0.598980 0.278180 0.275420 -4.011306 -0.816350 -7.076408 11.374389 -2.061367 6.693594 2.896758 -3.036023 9.399786 2.457832 6.757530 -9.261151 12.216782 -8.400142 16.083313 -4.897200 -1.776450 -12.645030 -16.804845 -5.822574 4.378482 -28.576308 1.885184 2.166461 -114.942192 -48.634710 61.942246 -4.024016 3.680242 0.390170 0.382400 -0.158130 0.171990 12.223336 0.064944 4.455990 43.466238 -1.295907 -1.691294 118.967636 51.881030 62.256224 1.741708 -2.303167 -0.311740 0.301500 -0.111880 -0.378330 
0.841180 17.063430 -5.100710 -5.412619 31.848918 -1.007731 -15.382493 12.816666 2.422139 -2.673673 -1.783087 -12.650002 -0.054429 4.113213 18.300534 -1.071637 3.987780 3.303357 0.819760 0.529430 0.650780 18.257879 -10.509007 3.307529 -13.162842 3.117892 -38.013600 5.394893 -11.060063 43.690286 -0.631855 -7.022474 1.743685 0.675630 0.283350 0.305290 -3.844552 -0.978366 -6.919751 9.371442 -1.960375 5.746281 4.245018 -3.182938 9.416642 2.234175 6.728864 -8.781746 12.153928 -7.640211 15.626737 -5.004350 -1.491810 -12.354010 -16.817099 -4.713876 4.113270 -27.403495 2.272983 3.121171 -117.018143 -47.823619 63.549534 -4.046964 3.773472 0.348640 0.409970 -0.169540 0.185040 12.923547 -0.849866 3.659701 42.475740 -0.365626 -0.636265 121.101056 52.477103 65.880313 1.698846 -2.353611 -0.291240 0.286630 -0.125210 -0.373250 
0.849780 16.996190 -5.072030 -4.540378 31.535340 -0.065639 -15.414200 12.877313 2.497744 -3.502956 -1.778898 -12.611331 -0.001584 4.046244 18.245810 -1.121358 4.035829 3.284982 0.872360 0.588800 0.660940 18.229705 -10.501562 3.186152 -12.952265 2.730660 -38.418513 3.702911 -9.063787 39.280307 -0.432818 -6.079603 2.027798 0.747590 0.320060 0.332320 -3.718815 -1.148371 -6.784510 7.806980 -2.171898 4.697871 5.124397 -3.557482 9.299722 2.025761 6.620432 -8.253655 11.933659 -6.843984 15.187856 -5.010230 -1.384220 -11.775830 -16.588760 -3.333500 3.749527 -26.420718 2.702541 4.018657 -118.368706 -47.112751 64.584614 -4.085552 3.847921 0.310840 0.451780 -0.197230 0.205830 13.321139 -2.090033 2.874018 41.910211 0.282266 0.355055 122.844255 53.000598 69.119658 1.637386 -2.400272 -0.292270 0.294180 -0.125260 -0.365880 
0.860310 16.934230 -5.040860 -3.660615 31.110191 0.726298 -15.444009 12.926294 2.567877 -4.335236 -1.799579 -12.606187 -0.001347 4.061352 18.744752 -1.152743 4.114914 3.240149 0.942530 0.670870 0.689640 18.202694 -10.481121 3.086932 -12.848125 2.418311 -38.494867 2.561538 -7.579189 35.207525 -0.301308 -5.294549 2.267174 0.821430 0.326240 0.357670 -3.600015 -1.305984 -6.679107 6.283491 -2.287036 3.934130 5.845514 -3.795038 9.158238 1.929616 6.692072 -7.818398 12.022536 -6.086586 14.783976 -4.860350 -1.122040 -11.804510 -16.560579 -2.124055 3.472919 -25.106971 3.457125 4.750525 -120.056575 -46.137716 65.543232 -4.100383 3.924158 0.287550 0.472810 -0.201280 0.223650 13.670287 -3.260646 2.202257 41.403460 0.618723 1.078181 124.562852 53.502548 72.240095 1.581352 -2.439989 -0.279520 0.292020 -0.139590 -0.363600 
